<svg xmlns="http://www.w3.org/2000/svg" viewBox="0 0 48 24" fill="none" stroke="white" stroke-width=".8" stroke-linecap="round" stroke-linejoin="round">
  <path d="M14 2v6a2 2 0 0 0 .245.96l5.51 10.08A2 2 0 0 1 18 22H6a2 2 0 0 1-1.755-2.96l5.51-10.08A2 2 0 0 0 10 8V2M8.5 2h7"/>
  <g fill="white" stroke="none" text-anchor="middle">
    <text x="9" y="15.2" font-family="serif" font-size="3">&#x3B4;</text>
    <text x="10.1" y="18.3" font-family="sans-serif" font-size="3">&#x4E2D;</text>
    <text x="11.8" y="20.9" font-family="serif" font-weight="bold" font-size="2.1">x</text>
    <text x="12" y="12.5" font-family="sans-serif" font-size="2.6">&#x306A;</text>
    <text x="17.1" y="20.2" font-family="serif" font-size="2.8">&#x434;</text>
    <text x="6.9" y="20.4" font-family="sans-serif" font-size="2.8">&#xC65C;</text>
    <text x="14.1" y="15.7" font-family="sans-serif" font-size="2.7" direction="rtl">&#x0628;&#x062D;&#x062B;</text>
  </g>
  <svg x="12.2" y="16.2" width="3.2" height="3.2" viewBox="0 0 24 24" stroke-width="2.2">
    <path d="m16 18 6-6-6-6M8 6l-6 6 6 6"/>
  </svg>
  <g fill="white" stroke="none" font-family="sans-serif" font-size="5" letter-spacing=".2">
    <text x="18" y="11" font-weight="bold">CRITT</text>
    <text x="22" y="17">Academy</text>
  </g>
</svg>
